<svg width="84" height="36" viewBox="0 0 84 36" fill="none" xmlns="http://www.w3.org/2000/svg">
<g clip-path="url(#clip0_4_45)">
<path d="M31.5003 0H4.49972C2.01909 0.00555419 0.00864576 2.01612 0 4.5V31.5C0 33.975 2.02459 36 4.49972 36H31.5003C33.9754 36 36 33.975 36 31.5V4.5C36 2.025 33.9754 0 31.5003 0Z" fill="#E44332"/>
<path d="M7.61242 16.9879C8.24007 16.6214 21.7232 8.78589 22.0314 8.60432C22.3396 8.425 22.3564 7.87357 22.009 7.67407C21.6638 7.47569 21.0081 7.0991 20.7649 6.95452C20.4177 6.76347 19.9956 6.76857 19.6531 6.96797C19.4805 7.06884 7.95987 13.76 7.57544 13.9796C7.11255 14.2442 6.54431 14.2486 6.08478 13.9796L0 10.4088V13.4439C1.47945 14.3159 5.16349 16.4813 6.05564 16.9912C6.58802 17.2938 7.09798 17.2871 7.61354 16.9879" fill="white"/>
<path d="M7.61242 22.7263C8.24007 22.3598 21.7232 14.5243 22.0314 14.3428C22.3396 14.1634 22.3564 13.612 22.009 13.4125C21.6638 13.2141 21.0081 12.8375 20.7649 12.693C20.4177 12.5019 19.9956 12.507 19.6531 12.7064C19.4805 12.8073 7.95987 19.4984 7.57544 19.7181C7.11255 19.9826 6.54431 19.9871 6.08478 19.7181L0 16.1472V19.1824C1.47945 20.0543 5.16349 22.2197 6.05564 22.7297C6.58802 23.0323 7.09798 23.0256 7.61354 22.7263" fill="white"/>
<path d="M7.61242 28.8234C8.24007 28.4569 21.7232 20.6215 22.0314 20.4399C22.3396 20.2606 22.3564 19.7091 22.009 19.5096C21.6638 19.3113 21.0081 18.9347 20.7649 18.7901C20.4177 18.599 19.9956 18.6041 19.6531 18.8035C19.4805 18.9044 7.95987 25.5955 7.57544 25.8152C7.11255 26.0797 6.54431 26.0842 6.08478 25.8152L0 22.2444V25.2795C1.47945 26.1515 5.16349 28.3168 6.05564 28.8268C6.58802 29.1294 7.09798 29.1227 7.61354 28.8234" fill="white"/>
</g>
<rect x="24" width="36" height="36" rx="18" fill="white"/>
<path d="M31.8187 7.48042C32.8265 8.29911 33.2045 8.23664 35.0968 8.1104L52.937 7.03918C53.3153 7.03918 53.0006 6.66171 52.8746 6.59897L49.9116 4.45707C49.344 4.01633 48.5875 3.51156 47.138 3.63783L29.8634 4.89778C29.2334 4.96025 29.1075 5.27523 29.3585 5.52773L31.8187 7.48042ZM32.8898 11.638V30.409C32.8898 31.4177 33.3939 31.7952 34.5286 31.7328L54.1349 30.5983C55.2701 30.5359 55.3965 29.8418 55.3965 29.0225V10.3775C55.3965 9.55935 55.0819 9.11811 54.3869 9.18108L33.8981 10.3775C33.142 10.4411 32.8898 10.8193 32.8898 11.638ZM52.2451 12.6449C52.3709 13.2124 52.2451 13.7794 51.6765 13.8432L50.7319 14.0314V27.8892C49.9116 28.3301 49.1553 28.5821 48.5251 28.5821C47.516 28.5821 47.2633 28.267 46.5075 27.3226L40.3283 17.622V27.0077L42.2836 27.4488C42.2836 27.4488 42.2836 28.5821 40.706 28.5821L36.3571 28.8343C36.2307 28.5821 36.3571 27.9528 36.7982 27.8266L37.9331 27.5122V15.1026L36.3573 14.9764C36.231 14.4089 36.5457 13.5907 37.4289 13.5271L42.0944 13.2127L48.5251 23.0395V14.3464L46.8855 14.1582C46.7597 13.4644 47.2633 12.9607 47.8938 12.8982L52.2451 12.6449ZM28.413 3.19709L46.3814 1.87389C48.588 1.68464 49.1556 1.81141 50.5425 2.81885L56.2781 6.85018C57.2246 7.54342 57.54 7.73216 57.54 8.48787V30.5983C57.54 31.9838 57.0353 32.8034 55.2703 32.9287L34.4038 34.189C33.079 34.2521 32.4484 34.0632 31.7546 33.1807L27.5308 27.7006C26.7739 26.6918 26.4592 25.937 26.4592 25.0541V5.40099C26.4592 4.2678 26.9641 3.32259 28.413 3.19709Z" fill="black"/>
<g clip-path="url(#clip1_4_45)">
<path d="M75.4737 8.52632H56.5263V27.4737H75.4737V8.52632Z" fill="white"/>
<path d="M75.4737 36L84 27.4737L79.7368 26.7463L75.4737 27.4737L74.6956 31.3732L75.4737 36Z" fill="#EA4335"/>
<path d="M48 27.4737V33.1579C48 34.7282 49.2718 36 50.8421 36H56.5263L57.4017 31.7368L56.5263 27.4737L51.8811 26.7463L48 27.4737Z" fill="#188038"/>
<path d="M84 8.52632V2.84211C84 1.27184 82.7281 0 81.1579 0H75.4737C74.9549 2.11442 74.6956 3.67047 74.6956 4.66815C74.6956 5.66583 74.9549 6.95189 75.4737 8.52632C77.3594 9.0663 78.7804 9.3363 79.7368 9.3363C80.6932 9.3363 82.1143 9.0663 84 8.52632Z" fill="#1967D2"/>
<path d="M84 8.52632H75.4737V27.4737H84V8.52632Z" fill="#FBBC04"/>
<path d="M75.4737 27.4737H56.5263V36H75.4737V27.4737Z" fill="#34A853"/>
<path d="M75.4737 0H50.8421C49.2718 0 48 1.27184 48 2.84211V27.4737H56.5263V8.52632H75.4737V0Z" fill="#4285F4"/>
<path d="M60.4129 23.2247C59.7047 22.7463 59.2145 22.0476 58.9468 21.1239L60.5905 20.4466C60.7397 21.015 61.0003 21.4555 61.3721 21.7682C61.7416 22.0808 62.1916 22.2347 62.7174 22.2347C63.255 22.2347 63.7168 22.0713 64.1029 21.7445C64.4889 21.4176 64.6832 21.0008 64.6832 20.4963C64.6832 19.98 64.4795 19.5584 64.0721 19.2316C63.6647 18.9047 63.1532 18.7413 62.5421 18.7413H61.5924V17.1142H62.445C62.9708 17.1142 63.4137 16.9721 63.7737 16.6879C64.1337 16.4037 64.3137 16.0153 64.3137 15.5203C64.3137 15.0797 64.1526 14.7292 63.8305 14.4663C63.5084 14.2034 63.101 14.0708 62.6061 14.0708C62.1229 14.0708 61.7392 14.1987 61.455 14.4568C61.171 14.7157 60.9574 15.0425 60.8345 15.4066L59.2074 14.7292C59.4229 14.1182 59.8184 13.5782 60.3987 13.1116C60.9789 12.645 61.7203 12.4105 62.6203 12.4105C63.2858 12.4105 63.885 12.5384 64.4155 12.7966C64.9461 13.0547 65.3629 13.4124 65.6637 13.8671C65.9645 14.3242 66.1137 14.8358 66.1137 15.4042C66.1137 15.9845 65.9739 16.4747 65.6945 16.8774C65.415 17.28 65.0716 17.5879 64.6642 17.8034V17.9005C65.1902 18.1174 65.6471 18.4736 65.9858 18.9308C66.3292 19.3926 66.5021 19.9445 66.5021 20.5887C66.5021 21.2329 66.3387 21.8084 66.0118 22.3129C65.685 22.8174 65.2326 23.2153 64.6595 23.5042C64.0839 23.7932 63.4374 23.94 62.7197 23.94C61.8884 23.9424 61.121 23.7032 60.4129 23.2247ZM70.5095 15.0679L68.7047 16.3729L67.8024 15.0039L71.04 12.6687H72.2811V23.6842H70.5095V15.0679Z" fill="#4285F4"/>
</g>
<defs>
<clipPath id="clip0_4_45">
<rect width="36" height="36" rx="18" fill="white"/>
</clipPath>
<clipPath id="clip1_4_45">
<rect x="48" width="36" height="36" rx="18" fill="white"/>
</clipPath>
</defs>
</svg>
