<svg width="266" height="60" viewBox="0 0 266 60" fill="none" xmlns="http://www.w3.org/2000/svg">
<path d="M30 17.5V52.5Z" fill="#274FF8"/>
<path d="M7.5 45C6.83696 45 6.20107 44.7366 5.73223 44.2678C5.26339 43.7989 5 43.163 5 42.5V10C5 9.33696 5.26339 8.70107 5.73223 8.23223C6.20107 7.76339 6.83696 7.5 7.5 7.5H20C22.6522 7.5 25.1957 8.55357 27.0711 10.4289C28.9464 12.3043 30 14.8478 30 17.5C30 14.8478 31.0536 12.3043 32.9289 10.4289C34.8043 8.55357 37.3478 7.5 40 7.5H52.5C53.163 7.5 53.7989 7.76339 54.2678 8.23223C54.7366 8.70107 55 9.33696 55 10V42.5C55 43.163 54.7366 43.7989 54.2678 44.2678C53.7989 44.7366 53.163 45 52.5 45H37.5C35.5109 45 33.6032 45.7902 32.1967 47.1967C30.7902 48.6032 30 50.5109 30 52.5C30 50.5109 29.2098 48.6032 27.8033 47.1967C26.3968 45.7902 24.4891 45 22.5 45H7.5Z" fill="#274FF8"/>
<path d="M67.68 19.88C67.68 18.2267 68.0933 16.7733 68.92 15.52C69.7467 14.2667 70.9067 13.2933 72.4 12.6C73.92 11.9067 75.6667 11.56 77.64 11.56C79.48 11.56 81.08 11.8933 82.44 12.56C83.8267 13.2 84.9067 14.12 85.68 15.32C86.48 16.52 86.9333 17.96 87.04 19.64H83.08C82.9733 18.2 82.44 17.08 81.48 16.28C80.52 15.48 79.2267 15.08 77.6 15.08C75.7867 15.08 74.3333 15.5067 73.24 16.36C72.1467 17.1867 71.6 18.32 71.6 19.76C71.6 20.9333 71.9333 21.88 72.6 22.6C73.2667 23.2933 74.28 23.8 75.64 24.12L80.4 25.24C82.7733 25.7733 84.5467 26.6933 85.72 28C86.92 29.28 87.52 30.9333 87.52 32.96C87.52 34.6933 87.0933 36.2 86.24 37.48C85.4133 38.76 84.2267 39.7467 82.68 40.44C81.16 41.1333 79.3733 41.48 77.32 41.48C75.3733 41.48 73.6533 41.16 72.16 40.52C70.6933 39.8533 69.5333 38.92 68.68 37.72C67.8533 36.4933 67.3867 35.0667 67.28 33.44H71.28C71.3067 34.8267 71.8667 35.9333 72.96 36.76C74.0533 37.56 75.5067 37.96 77.32 37.96C79.24 37.96 80.76 37.5333 81.88 36.68C83.0267 35.8267 83.6 34.6933 83.6 33.28C83.6 32.1333 83.28 31.2 82.64 30.48C82 29.76 80.9867 29.24 79.6 28.92L74.84 27.84C72.4933 27.3067 70.7067 26.3733 69.48 25.04C68.28 23.68 67.68 21.96 67.68 19.88ZM89.7259 21.44H101.166V24.6H89.7259V21.44ZM97.3259 41H93.5659V15.32H97.3259V41ZM118.06 21.44H121.78V41H118.42L118.02 38.04C117.46 39.0533 116.58 39.88 115.38 40.52C114.18 41.16 112.86 41.48 111.42 41.48C109.154 41.48 107.394 40.7733 106.14 39.36C104.914 37.92 104.3 36 104.3 33.6V21.44H108.06V32.36C108.06 34.44 108.474 35.9333 109.3 36.84C110.154 37.72 111.3 38.16 112.74 38.16C114.474 38.16 115.794 37.6267 116.7 36.56C117.607 35.4667 118.06 33.8667 118.06 31.76V21.44ZM134.685 41.48C132.792 41.48 131.165 41.0533 129.805 40.2C128.445 39.32 127.392 38.1067 126.645 36.56C125.925 35.0133 125.565 33.2533 125.565 31.28C125.565 29.28 125.938 27.5067 126.685 25.96C127.432 24.3867 128.498 23.1467 129.885 22.24C131.272 21.3333 132.925 20.88 134.845 20.88C136.365 20.88 137.712 21.2 138.885 21.84C140.085 22.4533 141.018 23.3733 141.685 24.6V11.56H145.405V41H142.045L141.725 37.44C141.085 38.7467 140.138 39.7467 138.885 40.44C137.658 41.1333 136.258 41.48 134.685 41.48ZM135.445 38.08C136.725 38.08 137.818 37.7867 138.725 37.2C139.658 36.6133 140.378 35.8 140.885 34.76C141.392 33.72 141.645 32.52 141.645 31.16C141.645 29.8 141.392 28.6133 140.885 27.6C140.378 26.56 139.658 25.7467 138.725 25.16C137.818 24.5733 136.725 24.28 135.445 24.28C134.165 24.28 133.072 24.5867 132.165 25.2C131.258 25.7867 130.565 26.6 130.085 27.64C129.605 28.6533 129.365 29.8267 129.365 31.16C129.365 32.52 129.605 33.72 130.085 34.76C130.565 35.8 131.258 36.6133 132.165 37.2C133.072 37.7867 134.165 38.08 135.445 38.08ZM152.389 21.44L159.269 40.48L156.949 43.68L148.429 21.44H152.389ZM148.949 49.76V46.68H151.469C152.083 46.68 152.643 46.6133 153.149 46.48C153.656 46.3733 154.123 46.12 154.549 45.72C154.976 45.3467 155.336 44.7467 155.629 43.92L163.869 21.44H167.749L158.509 45.4C157.843 47.08 157.003 48.2933 155.989 49.04C154.976 49.7867 153.723 50.16 152.229 50.16C151.616 50.16 151.043 50.12 150.509 50.04C149.976 49.9867 149.456 49.8933 148.949 49.76ZM169.711 19.88C169.711 18.2267 170.125 16.7733 170.951 15.52C171.778 14.2667 172.938 13.2933 174.431 12.6C175.951 11.9067 177.698 11.56 179.671 11.56C181.511 11.56 183.111 11.8933 184.471 12.56C185.858 13.2 186.938 14.12 187.711 15.32C188.511 16.52 188.965 17.96 189.071 19.64H185.111C185.005 18.2 184.471 17.08 183.511 16.28C182.551 15.48 181.258 15.08 179.631 15.08C177.818 15.08 176.365 15.5067 175.271 16.36C174.178 17.1867 173.631 18.32 173.631 19.76C173.631 20.9333 173.965 21.88 174.631 22.6C175.298 23.2933 176.311 23.8 177.671 24.12L182.431 25.24C184.805 25.7733 186.578 26.6933 187.751 28C188.951 29.28 189.551 30.9333 189.551 32.96C189.551 34.6933 189.125 36.2 188.271 37.48C187.445 38.76 186.258 39.7467 184.711 40.44C183.191 41.1333 181.405 41.48 179.351 41.48C177.405 41.48 175.685 41.16 174.191 40.52C172.725 39.8533 171.565 38.92 170.711 37.72C169.885 36.4933 169.418 35.0667 169.311 33.44H173.311C173.338 34.8267 173.898 35.9333 174.991 36.76C176.085 37.56 177.538 37.96 179.351 37.96C181.271 37.96 182.791 37.5333 183.911 36.68C185.058 35.8267 185.631 34.6933 185.631 33.28C185.631 32.1333 185.311 31.2 184.671 30.48C184.031 29.76 183.018 29.24 181.631 28.92L176.871 27.84C174.525 27.3067 172.738 26.3733 171.511 25.04C170.311 23.68 169.711 21.96 169.711 19.88ZM195.397 21.44L202.277 40.48L199.957 43.68L191.437 21.44H195.397ZM191.957 49.76V46.68H194.477C195.091 46.68 195.651 46.6133 196.157 46.48C196.664 46.3733 197.131 46.12 197.557 45.72C197.984 45.3467 198.344 44.7467 198.637 43.92L206.877 21.44H210.757L201.517 45.4C200.851 47.08 200.011 48.2933 198.997 49.04C197.984 49.7867 196.731 50.16 195.237 50.16C194.624 50.16 194.051 50.12 193.517 50.04C192.984 49.9867 192.464 49.8933 191.957 49.76ZM217.519 41H213.759V21.44H217.159L217.559 24.44C218.172 23.32 219.052 22.4533 220.199 21.84C221.372 21.2 222.652 20.88 224.039 20.88C226.599 20.88 228.492 21.6133 229.719 23.08C230.946 24.5467 231.559 26.5333 231.559 29.04V41H227.799V29.88C227.799 27.9067 227.372 26.4933 226.519 25.64C225.666 24.76 224.519 24.32 223.079 24.32C221.319 24.32 219.946 24.8933 218.959 26.04C217.999 27.1867 217.519 28.72 217.519 30.64V41ZM235.487 31.24C235.487 29.1867 235.887 27.3867 236.687 25.84C237.514 24.2933 238.647 23.08 240.087 22.2C241.527 21.32 243.194 20.88 245.087 20.88C247.54 20.88 249.58 21.5333 251.207 22.84C252.834 24.1467 253.807 25.88 254.127 28.04H250.367C250.047 26.7867 249.42 25.84 248.487 25.2C247.554 24.56 246.46 24.24 245.207 24.24C244.034 24.24 242.994 24.5333 242.087 25.12C241.18 25.68 240.474 26.48 239.967 27.52C239.46 28.56 239.207 29.7867 239.207 31.2C239.207 32.6133 239.447 33.84 239.927 34.88C240.407 35.8933 241.087 36.6933 241.967 37.28C242.847 37.84 243.874 38.12 245.047 38.12C246.38 38.12 247.527 37.7867 248.487 37.12C249.447 36.4533 250.087 35.5467 250.407 34.4H254.167C253.927 35.8133 253.38 37.0533 252.527 38.12C251.7 39.16 250.634 39.9867 249.327 40.6C248.047 41.1867 246.62 41.48 245.047 41.48C243.127 41.48 241.447 41.0533 240.007 40.2C238.594 39.3467 237.487 38.16 236.687 36.64C235.887 35.0933 235.487 33.2933 235.487 31.24Z" fill="#274FF8"/>
</svg>
